<mxfile host="app.diagrams.net" modified="2020-09-21T22:35:22.514Z" agent="5.0 (Macintosh; Intel Mac OS X 10_13_6) AppleWebKit/537.36 (KHTML, like Gecko) Chrome/85.0.4183.102 Safari/537.36" etag="zJviemBBLzxMXwfTKUJ4" version="13.7.3" type="github">
  <diagram id="6a731a19-8d31-9384-78a2-239565b7b9f0" name="Page-1">
    <mxGraphModel dx="583" dy="514" grid="1" gridSize="10" guides="1" tooltips="1" connect="1" arrows="1" fold="1" page="1" pageScale="1" pageWidth="1169" pageHeight="827" background="#ffffff" math="0" shadow="0">
      <root>
        <mxCell id="0" />
        <mxCell id="1" parent="0" />
        <mxCell id="rK3FY61tSkO-ZGzB_sYB-89" style="edgeStyle=orthogonalEdgeStyle;rounded=0;orthogonalLoop=1;jettySize=auto;html=1;exitX=0.5;exitY=1;exitDx=0;exitDy=0;exitPerimeter=0;entryX=0.5;entryY=0;entryDx=0;entryDy=0;startArrow=oval;startFill=1;" edge="1" parent="1" source="2" target="rK3FY61tSkO-ZGzB_sYB-56">
          <mxGeometry relative="1" as="geometry" />
        </mxCell>
        <mxCell id="2" value="start" style="shape=mxgraph.flowchart.terminator;strokeWidth=2;gradientColor=none;gradientDirection=north;fontStyle=0;html=1;" parent="1" vertex="1">
          <mxGeometry x="260" y="25" width="120" height="30" as="geometry" />
        </mxCell>
        <mxCell id="rK3FY61tSkO-ZGzB_sYB-90" style="edgeStyle=orthogonalEdgeStyle;rounded=0;orthogonalLoop=1;jettySize=auto;html=1;startArrow=oval;startFill=1;" edge="1" parent="1" source="rK3FY61tSkO-ZGzB_sYB-56">
          <mxGeometry relative="1" as="geometry">
            <mxPoint x="320" y="150" as="targetPoint" />
          </mxGeometry>
        </mxCell>
        <mxCell id="rK3FY61tSkO-ZGzB_sYB-56" value="Pop up an InputBox and ask the user to enter the year" style="rounded=0;whiteSpace=wrap;html=1;" vertex="1" parent="1">
          <mxGeometry x="260" y="75" width="120" height="45" as="geometry" />
        </mxCell>
        <mxCell id="rK3FY61tSkO-ZGzB_sYB-93" style="edgeStyle=orthogonalEdgeStyle;rounded=0;orthogonalLoop=1;jettySize=auto;html=1;entryX=0.5;entryY=0;entryDx=0;entryDy=0;startArrow=oval;startFill=1;" edge="1" parent="1" source="rK3FY61tSkO-ZGzB_sYB-58" target="rK3FY61tSkO-ZGzB_sYB-59">
          <mxGeometry relative="1" as="geometry" />
        </mxCell>
        <mxCell id="rK3FY61tSkO-ZGzB_sYB-58" value="Activate &quot;All Stocks Analysis&quot; worksheet This is your data output spreadsheet" style="rounded=0;whiteSpace=wrap;html=1;" vertex="1" parent="1">
          <mxGeometry x="260" y="210" width="120" height="60" as="geometry" />
        </mxCell>
        <mxCell id="rK3FY61tSkO-ZGzB_sYB-94" style="edgeStyle=orthogonalEdgeStyle;rounded=0;orthogonalLoop=1;jettySize=auto;html=1;entryX=0.5;entryY=0;entryDx=0;entryDy=0;startArrow=oval;startFill=1;" edge="1" parent="1" source="rK3FY61tSkO-ZGzB_sYB-59" target="rK3FY61tSkO-ZGzB_sYB-60">
          <mxGeometry relative="1" as="geometry" />
        </mxCell>
        <mxCell id="rK3FY61tSkO-ZGzB_sYB-59" value="Create the column headers" style="rounded=0;whiteSpace=wrap;html=1;" vertex="1" parent="1">
          <mxGeometry x="260" y="290" width="120" height="60" as="geometry" />
        </mxCell>
        <mxCell id="rK3FY61tSkO-ZGzB_sYB-95" style="edgeStyle=orthogonalEdgeStyle;rounded=0;orthogonalLoop=1;jettySize=auto;html=1;entryX=0.5;entryY=0;entryDx=0;entryDy=0;startArrow=oval;startFill=1;" edge="1" parent="1" source="rK3FY61tSkO-ZGzB_sYB-60" target="rK3FY61tSkO-ZGzB_sYB-81">
          <mxGeometry relative="1" as="geometry" />
        </mxCell>
        <mxCell id="rK3FY61tSkO-ZGzB_sYB-60" value="Create and initialize arrays for ticker names, volumes, start and ending prices&amp;nbsp;" style="rounded=0;whiteSpace=wrap;html=1;" vertex="1" parent="1">
          <mxGeometry x="260" y="370" width="120" height="70" as="geometry" />
        </mxCell>
        <mxCell id="rK3FY61tSkO-ZGzB_sYB-61" value="is i &amp;gt; rowCount?" style="rhombus;whiteSpace=wrap;html=1;" vertex="1" parent="1">
          <mxGeometry x="280" y="593" width="80" height="70" as="geometry" />
        </mxCell>
        <mxCell id="rK3FY61tSkO-ZGzB_sYB-65" style="edgeStyle=orthogonalEdgeStyle;rounded=0;orthogonalLoop=1;jettySize=auto;html=1;exitX=0.5;exitY=1;exitDx=0;exitDy=0;entryX=0.5;entryY=0;entryDx=0;entryDy=0;" edge="1" parent="1" source="rK3FY61tSkO-ZGzB_sYB-62" target="rK3FY61tSkO-ZGzB_sYB-61">
          <mxGeometry relative="1" as="geometry" />
        </mxCell>
        <mxCell id="rK3FY61tSkO-ZGzB_sYB-62" value="i = 2" style="rounded=0;whiteSpace=wrap;html=1;" vertex="1" parent="1">
          <mxGeometry x="290" y="533" width="60" height="30" as="geometry" />
        </mxCell>
        <mxCell id="rK3FY61tSkO-ZGzB_sYB-63" value="If statements to keep track of start and end prices in the arrays you created" style="rounded=0;whiteSpace=wrap;html=1;" vertex="1" parent="1">
          <mxGeometry x="400" y="593" width="120" height="60" as="geometry" />
        </mxCell>
        <mxCell id="rK3FY61tSkO-ZGzB_sYB-70" value="" style="endArrow=classic;html=1;exitX=0.5;exitY=0;exitDx=0;exitDy=0;" edge="1" parent="1" source="rK3FY61tSkO-ZGzB_sYB-63">
          <mxGeometry width="50" height="50" relative="1" as="geometry">
            <mxPoint x="420" y="393" as="sourcePoint" />
            <mxPoint x="320" y="573" as="targetPoint" />
            <Array as="points">
              <mxPoint x="460" y="573" />
            </Array>
          </mxGeometry>
        </mxCell>
        <mxCell id="rK3FY61tSkO-ZGzB_sYB-96" value="i = i + 1" style="edgeLabel;html=1;align=center;verticalAlign=middle;resizable=0;points=[];" vertex="1" connectable="0" parent="rK3FY61tSkO-ZGzB_sYB-70">
          <mxGeometry x="-0.0708" y="-2" relative="1" as="geometry">
            <mxPoint as="offset" />
          </mxGeometry>
        </mxCell>
        <mxCell id="rK3FY61tSkO-ZGzB_sYB-71" value="No" style="endArrow=classic;html=1;exitX=1;exitY=0.5;exitDx=0;exitDy=0;entryX=-0.008;entryY=0.606;entryDx=0;entryDy=0;entryPerimeter=0;" edge="1" parent="1" source="rK3FY61tSkO-ZGzB_sYB-61" target="rK3FY61tSkO-ZGzB_sYB-63">
          <mxGeometry relative="1" as="geometry">
            <mxPoint x="370" y="673" as="sourcePoint" />
            <mxPoint x="470" y="673" as="targetPoint" />
          </mxGeometry>
        </mxCell>
        <mxCell id="rK3FY61tSkO-ZGzB_sYB-72" value="No" style="edgeLabel;resizable=0;html=1;align=center;verticalAlign=middle;" connectable="0" vertex="1" parent="rK3FY61tSkO-ZGzB_sYB-71">
          <mxGeometry relative="1" as="geometry" />
        </mxCell>
        <mxCell id="rK3FY61tSkO-ZGzB_sYB-84" style="edgeStyle=orthogonalEdgeStyle;rounded=0;orthogonalLoop=1;jettySize=auto;html=1;exitX=0.5;exitY=1;exitDx=0;exitDy=0;entryX=0.5;entryY=0;entryDx=0;entryDy=0;startArrow=oval;startFill=1;" edge="1" parent="1" source="rK3FY61tSkO-ZGzB_sYB-73" target="rK3FY61tSkO-ZGzB_sYB-74">
          <mxGeometry relative="1" as="geometry" />
        </mxCell>
        <mxCell id="rK3FY61tSkO-ZGzB_sYB-73" value="Activate the &quot;All Stocks Analysis&quot; spreadsheet. Loop 0 to 11 putting the result values into the cells in the spreadsheet" style="rounded=0;whiteSpace=wrap;html=1;" vertex="1" parent="1">
          <mxGeometry x="220" y="689" width="200" height="60" as="geometry" />
        </mxCell>
        <mxCell id="rK3FY61tSkO-ZGzB_sYB-85" style="edgeStyle=orthogonalEdgeStyle;rounded=0;orthogonalLoop=1;jettySize=auto;html=1;exitX=1;exitY=0.5;exitDx=0;exitDy=0;entryX=0;entryY=0.5;entryDx=0;entryDy=0;startArrow=oval;startFill=1;" edge="1" parent="1" source="rK3FY61tSkO-ZGzB_sYB-74" target="rK3FY61tSkO-ZGzB_sYB-76">
          <mxGeometry relative="1" as="geometry" />
        </mxCell>
        <mxCell id="rK3FY61tSkO-ZGzB_sYB-74" value="Format the cells - font, number type and color (based on &amp;gt; or &amp;lt; 0)" style="rounded=0;whiteSpace=wrap;html=1;" vertex="1" parent="1">
          <mxGeometry x="260" y="767" width="120" height="60" as="geometry" />
        </mxCell>
        <mxCell id="rK3FY61tSkO-ZGzB_sYB-92" style="edgeStyle=orthogonalEdgeStyle;rounded=0;orthogonalLoop=1;jettySize=auto;html=1;entryX=0.5;entryY=0;entryDx=0;entryDy=0;startArrow=oval;startFill=1;" edge="1" parent="1" source="rK3FY61tSkO-ZGzB_sYB-75" target="rK3FY61tSkO-ZGzB_sYB-58">
          <mxGeometry relative="1" as="geometry" />
        </mxCell>
        <mxCell id="rK3FY61tSkO-ZGzB_sYB-75" value="Get start time" style="rounded=0;whiteSpace=wrap;html=1;" vertex="1" parent="1">
          <mxGeometry x="260" y="153" width="120" height="40" as="geometry" />
        </mxCell>
        <mxCell id="rK3FY61tSkO-ZGzB_sYB-86" style="edgeStyle=orthogonalEdgeStyle;rounded=0;orthogonalLoop=1;jettySize=auto;html=1;exitX=1;exitY=0.5;exitDx=0;exitDy=0;entryX=0;entryY=0.5;entryDx=0;entryDy=0;startArrow=oval;startFill=1;" edge="1" parent="1" source="rK3FY61tSkO-ZGzB_sYB-76" target="rK3FY61tSkO-ZGzB_sYB-77">
          <mxGeometry relative="1" as="geometry" />
        </mxCell>
        <mxCell id="rK3FY61tSkO-ZGzB_sYB-76" value="Get end time" style="rounded=0;whiteSpace=wrap;html=1;" vertex="1" parent="1">
          <mxGeometry x="400" y="767" width="120" height="60" as="geometry" />
        </mxCell>
        <mxCell id="rK3FY61tSkO-ZGzB_sYB-88" style="edgeStyle=orthogonalEdgeStyle;rounded=0;orthogonalLoop=1;jettySize=auto;html=1;entryX=0;entryY=0.5;entryDx=0;entryDy=0;startArrow=oval;startFill=1;" edge="1" parent="1" source="rK3FY61tSkO-ZGzB_sYB-77" target="rK3FY61tSkO-ZGzB_sYB-78">
          <mxGeometry relative="1" as="geometry" />
        </mxCell>
        <mxCell id="rK3FY61tSkO-ZGzB_sYB-77" value="Pop up MsgBox to tell user the time it took and the year number" style="rounded=0;whiteSpace=wrap;html=1;" vertex="1" parent="1">
          <mxGeometry x="540" y="767" width="110" height="60" as="geometry" />
        </mxCell>
        <mxCell id="rK3FY61tSkO-ZGzB_sYB-78" value="End" style="ellipse;whiteSpace=wrap;html=1;" vertex="1" parent="1">
          <mxGeometry x="700" y="777" width="120" height="40" as="geometry" />
        </mxCell>
        <mxCell id="rK3FY61tSkO-ZGzB_sYB-79" style="edgeStyle=orthogonalEdgeStyle;rounded=0;orthogonalLoop=1;jettySize=auto;html=1;exitX=0.5;exitY=1;exitDx=0;exitDy=0;startArrow=oval;startFill=1;" edge="1" parent="1" source="rK3FY61tSkO-ZGzB_sYB-58" target="rK3FY61tSkO-ZGzB_sYB-58">
          <mxGeometry relative="1" as="geometry" />
        </mxCell>
        <mxCell id="rK3FY61tSkO-ZGzB_sYB-97" style="edgeStyle=orthogonalEdgeStyle;rounded=0;orthogonalLoop=1;jettySize=auto;html=1;exitX=0.5;exitY=1;exitDx=0;exitDy=0;entryX=0.5;entryY=0;entryDx=0;entryDy=0;startArrow=oval;startFill=1;" edge="1" parent="1" source="rK3FY61tSkO-ZGzB_sYB-81" target="rK3FY61tSkO-ZGzB_sYB-62">
          <mxGeometry relative="1" as="geometry" />
        </mxCell>
        <mxCell id="rK3FY61tSkO-ZGzB_sYB-81" value="Activate the 2017 or 2018 spreadsheet. This is your data input." style="rounded=0;whiteSpace=wrap;html=1;" vertex="1" parent="1">
          <mxGeometry x="260" y="460" width="120" height="60" as="geometry" />
        </mxCell>
        <mxCell id="rK3FY61tSkO-ZGzB_sYB-82" value="" style="endArrow=classic;html=1;entryX=0.5;entryY=0;entryDx=0;entryDy=0;exitX=0.5;exitY=1;exitDx=0;exitDy=0;" edge="1" parent="1" source="rK3FY61tSkO-ZGzB_sYB-61" target="rK3FY61tSkO-ZGzB_sYB-73">
          <mxGeometry relative="1" as="geometry">
            <mxPoint x="220" y="640" as="sourcePoint" />
            <mxPoint x="320" y="640" as="targetPoint" />
          </mxGeometry>
        </mxCell>
        <mxCell id="rK3FY61tSkO-ZGzB_sYB-83" value="Yes" style="edgeLabel;resizable=0;html=1;align=center;verticalAlign=middle;" connectable="0" vertex="1" parent="rK3FY61tSkO-ZGzB_sYB-82">
          <mxGeometry relative="1" as="geometry">
            <mxPoint y="-3" as="offset" />
          </mxGeometry>
        </mxCell>
        <mxCell id="rK3FY61tSkO-ZGzB_sYB-99" value="&lt;font style=&quot;font-size: 20px&quot;&gt;Module 2 Challenge Overview&lt;/font&gt;" style="text;html=1;strokeColor=none;fillColor=none;align=center;verticalAlign=middle;whiteSpace=wrap;rounded=0;" vertex="1" parent="1">
          <mxGeometry x="470" y="35" width="200" height="20" as="geometry" />
        </mxCell>
      </root>
    </mxGraphModel>
  </diagram>
</mxfile>
